<?xml version="1.0" encoding="UTF-8"?>
<svg version="1.1" xmlns="http://www.w3.org/2000/svg" width="880" height="180">
<path d="M0 0 C290.4 0 580.8 0 880 0 C880 59.4 880 118.8 880 180 C589.6 180 299.2 180 0 180 C0 120.6 0 61.2 0 0 Z " fill="#2F2F2F" transform="translate(0,0)"/>
<path d="M0 0 C3.81488941 1.51398078 5.63076629 3.72997068 8.125 6.9375 C11.29541471 10.92390669 14.54377896 14.7584523 18 18.5 C22.09351091 22.94727112 25.92442499 27.54717463 29.71875 32.25 C32.06718968 35.08099578 34.50909902 37.79383598 37 40.5 C41.11378909 44.9698512 44.97087297 49.59044893 48.78515625 54.31640625 C50.95632827 56.94708557 53.20241357 59.47942424 55.5 62 C58.59555196 65.39598682 61.55151207 68.86171531 64.4375 72.4375 C68.29825137 77.211403 72.37437075 81.73388428 76.53125 86.25 C79.72881296 89.81184229 82.71388343 93.52565833 85.71875 97.25 C88.06718968 100.08099578 90.50909902 102.79383598 93 105.5 C97.10565205 109.96100987 100.95639445 114.57127145 104.76171875 119.2890625 C107.7450804 122.9024185 110.88402912 126.35950838 114.0546875 129.80859375 C118.91186537 135.28023388 118.91186537 135.28023388 119.375 139.0625 C119 142 119 142 117.875 143.875 C115.21965017 145.4682099 113.03210482 145.20214032 110 145 C110 144.34 110 143.68 110 143 C109.42378906 142.77054688 108.84757813 142.54109375 108.25390625 142.3046875 C105.40836602 140.65752903 103.95130438 138.72224303 101.9375 136.125 C98.59921402 131.92610499 95.16083579 127.91935312 91.5 124 C87.07475727 119.24942873 82.92873463 114.35196375 78.875 109.27734375 C77.09705526 107.02840874 77.09705526 107.02840874 75.25 105.31640625 C74 104 74 104 74 102 C55.51041386 101.89687579 37.0215262 101.85108667 18.53165531 101.87302971 C9.94584418 101.88189102 1.36081235 101.87218905 -7.22485352 101.81835938 C-14.71066762 101.77147302 -22.19557661 101.75985164 -29.68149096 101.7900821 C-33.64344844 101.80486319 -37.60364375 101.80232177 -41.56541252 101.75750351 C-45.30014913 101.71581192 -49.03190888 101.7215275 -52.76662445 101.76252174 C-54.77961109 101.77259054 -56.79265849 101.73336948 -58.80525208 101.69233704 C-64.0493834 101.78793963 -67.5857396 101.88075354 -71.78659248 105.20531082 C-74.05944185 107.70566633 -76.05584751 110.23984501 -78 113 C-78.81210937 113.96550781 -79.62421875 114.93101562 -80.4609375 115.92578125 C-81.09257813 116.71339844 -81.72421875 117.50101562 -82.375 118.3125 C-86.21247047 123.05725334 -90.13489634 127.71929523 -94.11352539 132.34570312 C-96.71365393 135.39200211 -99.07339783 138.49487741 -101.3125 141.8125 C-103.35425192 144.60958212 -103.6153454 144.91703528 -107.1875 145.6875 C-110 145 -110 145 -111.875 143.9375 C-113.69715801 140.79933897 -113.41225874 138.57898962 -113 135 C-111.35962883 132.2627049 -109.25743496 130.05374473 -107.0625 127.75 C-105.85685587 126.42558605 -104.65243351 125.1000589 -103.44921875 123.7734375 C-102.8567334 123.12987305 -102.26424805 122.48630859 -101.65380859 121.82324219 C-99.46776441 119.41323659 -97.41500271 116.90921102 -95.375 114.375 C-92.13270852 110.37261089 -88.83606872 106.42404365 -85.5 102.5 C-82.12711398 98.53100848 -78.78823226 94.5398282 -75.5 90.5 C-71.75212202 85.8954642 -67.93016556 81.35980809 -64.0859375 76.8359375 C-60.44140593 72.53986956 -56.8721266 68.18631659 -53.31640625 63.81640625 C-50.72212734 60.66214808 -48.08393735 57.5479702 -45.4375 54.4375 C-42.23260809 50.66911061 -39.07312306 46.87753972 -36 43 C-32.47116597 38.54746299 -28.81770671 34.21314021 -25.13671875 29.88671875 C-22.21995487 26.45428391 -19.34306574 22.99407185 -16.5 19.5 C-13.04322747 15.25418157 -9.53685002 11.0540796 -6 6.875 C-5.51853516 6.30587891 -5.03707031 5.73675781 -4.54101562 5.15039062 C-1.13539567 1.13539567 -1.13539567 1.13539567 0 0 Z " fill="#CD44CA" transform="translate(750,21)"/>
<path d="M0 0 C0.33 0 0.66 0 1 0 C1.07002445 20.02727042 1.12295593 40.05451606 1.15543652 60.08188343 C1.17091744 69.38055827 1.19203031 78.67915713 1.22631836 87.9777832 C1.25618327 96.08074245 1.27556608 104.18364667 1.28226548 112.28665942 C1.28618269 116.57872144 1.29541396 120.87062605 1.31719017 125.16263771 C1.33750948 129.20010217 1.3438431 133.23734393 1.33932304 137.27485466 C1.3401503 138.75877211 1.34614314 140.2426968 1.35761642 141.72657013 C1.37248749 143.74859264 1.36717863 145.77073388 1.36076355 147.7928009 C1.36352893 148.92568448 1.36629431 150.05856806 1.36914349 151.22578144 C1 154 1 154 -0.33504772 155.86841869 C-2.9079265 157.61707033 -4.97499152 157.31510505 -8 157 C-8.99 156.34 -9.98 155.68 -11 155 C-11.38476086 152.98914146 -11.38476086 152.98914146 -11.39872742 150.46957397 C-11.41126556 149.51602524 -11.42380371 148.5624765 -11.4367218 147.58003235 C-11.43528671 146.53058945 -11.43385162 145.48114655 -11.43237305 144.39990234 C-11.44766052 142.74623405 -11.44766052 142.74623405 -11.46325684 141.05915833 C-11.49354269 137.4013674 -11.5026767 133.74383766 -11.51171875 130.0859375 C-11.52855385 127.55529906 -11.54670248 125.02466904 -11.56611633 122.49404907 C-11.60887618 116.50528241 -11.63834942 110.51659175 -11.66143972 104.52772868 C-11.68846193 97.71031864 -11.73237514 90.89305043 -11.77772844 84.07574153 C-11.87065372 70.0505713 -11.94229822 56.02535619 -12 42 C-12.64877609 43.04569153 -13.29755219 44.09138306 -13.96598816 45.16876221 C-18.62872927 52.66778847 -23.31917001 60.12902517 -28.30078125 67.421875 C-29.44029273 69.10244019 -30.57977724 70.78302366 -31.71923828 72.46362305 C-32.59712006 73.75494644 -32.59712006 73.75494644 -33.49273682 75.07235718 C-45.89182736 93.31667386 -58.10053333 111.68088545 -70.19262695 130.12988281 C-77.00194066 140.51012739 -83.9153775 150.80546944 -91 161 C-94.37052055 159.87649315 -94.69333942 159.38326247 -96.54248047 156.52978516 C-97.03037048 155.7860817 -97.5182605 155.04237823 -98.02093506 154.27613831 C-98.54769836 153.45540329 -99.07446167 152.63466827 -99.6171875 151.7890625 C-100.1777887 150.93074326 -100.73838989 150.07242401 -101.315979 149.18809509 C-102.53493511 147.32036967 -103.75027703 145.45028172 -104.96246338 143.57815552 C-108.22374466 138.54239792 -111.51164683 133.52406054 -114.796875 128.50390625 C-115.47448883 127.46703171 -116.15210266 126.43015717 -116.85025024 125.36186218 C-123.83495442 114.68951995 -130.97051936 104.12144195 -138.125 93.5625 C-146.57938382 81.07224084 -154.99133067 68.55823394 -163.25 55.9375 C-163.65140198 55.32464142 -164.05280396 54.71178284 -164.46636963 54.08035278 C-170.79643594 44.40712811 -170.79643594 44.40712811 -172 42 C-172.00238835 42.57445264 -172.00477671 43.14890528 -172.00723743 43.74076557 C-172.06634685 57.71180573 -172.14206032 71.68267067 -172.23571491 85.65352345 C-172.28070042 92.40970616 -172.32010858 99.16583583 -172.34643555 105.92211914 C-172.37184339 112.43852398 -172.41272945 118.95472377 -172.46318626 125.47098351 C-172.4799111 127.96091477 -172.49139025 130.45088681 -172.49761391 132.94086647 C-172.50719388 136.42022193 -172.53518037 139.8989672 -172.56762695 143.37817383 C-172.56619186 144.41467072 -172.56475677 145.4511676 -172.5632782 146.51907349 C-172.57581635 147.46558273 -172.58835449 148.41209198 -172.60127258 149.38728333 C-172.60818603 150.62202503 -172.60818603 150.62202503 -172.61523914 151.88171101 C-173.09498775 154.52295211 -173.86854578 155.40651105 -176 157 C-179 157.5 -179 157.5 -182 157 C-184.9331391 153.23809905 -185.37247817 150.36374449 -185.36076355 145.66618347 C-185.36488754 144.38877289 -185.36901154 143.1113623 -185.3732605 141.79524231 C-185.36264441 140.38717438 -185.35174 138.97910861 -185.34057617 137.57104492 C-185.3397296 136.08264178 -185.34020562 134.59423738 -185.34190369 133.10583496 C-185.34276391 129.07102571 -185.32513385 125.03648438 -185.30418181 121.00173736 C-185.28541952 116.78301717 -185.28366493 112.56429075 -185.28010559 108.34553528 C-185.27078381 100.35934197 -185.24616823 92.37327197 -185.21605712 84.38713294 C-185.18251726 75.29409978 -185.16602814 66.20106071 -185.15097082 57.10798109 C-185.11961879 38.40525084 -185.0668557 19.70263533 -185 1 C-182.68076346 3.88358276 -180.41556423 6.74970454 -178.34399414 9.81665039 C-177.8561293 10.5369191 -177.36826447 11.25718781 -176.86561584 11.99928284 C-176.34406418 12.77424606 -175.82251251 13.54920929 -175.28515625 14.34765625 C-174.72642319 15.17470566 -174.16769012 16.00175507 -173.59202576 16.85386658 C-171.74627311 19.58834952 -169.90417874 22.32527188 -168.0625 25.0625 C-167.42296387 26.0114917 -166.78342773 26.9604834 -166.12451172 27.93823242 C-155.88947091 43.12861423 -145.77528362 58.39576112 -135.7225647 73.70724487 C-124.92272135 90.15318892 -113.95956432 106.48497102 -102.92382812 122.7734375 C-102.3311615 123.648862 -101.73849487 124.5242865 -101.12786865 125.42623901 C-100.01793517 127.06516892 -98.90687015 128.70333327 -97.79449463 130.34060669 C-97.3064032 131.06110199 -96.81831177 131.78159729 -96.31542969 132.52392578 C-95.88993835 133.15066193 -95.46444702 133.77739807 -95.02606201 134.42312622 C-94 136 -94 136 -93 138 C-92.34 138 -91.68 138 -91 138 C-89.71584732 136.49640564 -89.71584732 136.49640564 -88.45996094 134.48461914 C-87.94970871 133.70900635 -87.43945648 132.93339355 -86.91374207 132.13427734 C-86.35955093 131.27656738 -85.8053598 130.41885742 -85.234375 129.53515625 C-84.65299271 128.64771729 -84.07161041 127.76027832 -83.47261047 126.84594727 C-81.55885499 123.92214492 -79.65459978 120.99227289 -77.75 118.0625 C-75.76643819 115.02824128 -73.78038849 111.99562027 -71.79432678 108.96299744 C-70.45572519 106.91850219 -69.11795159 104.87346459 -67.7809906 102.82789612 C-61.9260726 93.87163581 -56.00889279 84.95820113 -50.0625 76.0625 C-49.16416702 74.71732405 -48.26589146 73.37210975 -47.36767578 72.02685547 C-45.68562266 69.50808613 -44.00297813 66.98971355 -42.31982422 64.47167969 C-38.91681068 59.38011301 -35.5210666 54.28370172 -32.125 49.1875 C-31.10680746 47.66013183 -30.08858021 46.13278681 -29.0703125 44.60546875 C-28.33421753 43.50090332 -28.33421753 43.50090332 -27.58325195 42.37402344 C-26.44219216 40.66304958 -25.29995829 38.95285852 -24.15698242 37.24316406 C-19.46404111 30.21792055 -14.81153589 23.16736442 -10.18823242 16.09619141 C-9.04006854 14.34070336 -7.89016618 12.58636159 -6.74023438 10.83203125 C-6.00510355 9.70840188 -5.27007349 8.58470658 -4.53515625 7.4609375 C-3.879104 6.45853027 -3.22305176 5.45612305 -2.54711914 4.42333984 C-1.0137545 2.11447286 -1.0137545 2.11447286 0 0 Z " fill="#AB6DD7" transform="translate(623,10)"/>
<path d="M0 0 C6.85637771 6.3467171 6.85637771 6.3467171 7.359375 11.1328125 C6.97265625 14.453125 6.97265625 14.453125 4.97265625 16.453125 C2.34765625 17.078125 2.34765625 17.078125 -1.02734375 16.453125 C-3.14053643 14.66189944 -4.96378324 12.69121886 -6.85546875 10.66796875 C-23.48964348 -6.29529936 -50.55480401 -13.58965612 -73.52734375 -13.921875 C-98.46888764 -13.90485151 -121.25794993 -6.14507562 -140.02734375 10.453125 C-140.76082031 11.06800781 -141.49429687 11.68289062 -142.25 12.31640625 C-150.74704815 19.96211239 -156.66237495 32.20169268 -157.3984375 43.6171875 C-157.6704854 53.54361828 -156.6280458 61.45808485 -152.02734375 70.453125 C-151.56972656 71.35675781 -151.11210937 72.26039062 -150.640625 73.19140625 C-142.06923013 88.66688356 -126.1369204 98.23464128 -110.02734375 104.453125 C-109.37185547 104.7114209 -108.71636719 104.9697168 -108.04101562 105.23583984 C-97.03356432 109.35966123 -85.97391941 109.9463804 -74.33984375 110.015625 C-73.65118225 110.02447723 -72.96252075 110.03332947 -72.25299072 110.04244995 C-48.16229677 110.2523117 -25.47704377 101.7624072 -7.1796875 86.2109375 C-4.9900548 83.40534642 -4.71286358 82.63253708 -4.39282227 79.28076172 C-4.2119104 77.38608154 -4.2119104 77.38608154 -4.02734375 75.453125 C-4.93523148 75.45756622 -5.8431192 75.46200745 -6.77851868 75.46658325 C-15.3276527 75.50663011 -23.8767553 75.5370942 -32.42596149 75.55674934 C-36.82136849 75.56719388 -41.2166981 75.58136527 -45.61206055 75.60400391 C-49.8525233 75.62570844 -54.09291152 75.63768858 -58.33342552 75.64287949 C-59.95257936 75.64657954 -61.57172904 75.65380469 -63.19085121 75.66458511 C-65.45585625 75.67906839 -67.72055193 75.68110429 -69.9855957 75.68017578 C-71.92085869 75.68683762 -71.92085869 75.68683762 -73.8952179 75.69363403 C-77.02734375 75.453125 -77.02734375 75.453125 -80.02734375 73.453125 C-80.40837863 70.46835175 -80.60648576 68.40655556 -79.01286316 65.78300476 C-75.8698451 63.67784473 -72.53821009 64.06227846 -68.8840332 64.11254883 C-68.05454163 64.11211075 -67.22505005 64.11167267 -66.37042236 64.11122131 C-63.62691766 64.11331241 -60.88402303 64.1366584 -58.140625 64.16015625 C-56.23919509 64.16575107 -54.33776085 64.1700217 -52.43632507 64.17301941 C-47.43028842 64.18447718 -42.42451264 64.21395242 -37.4185791 64.24713135 C-32.31098968 64.27781212 -27.20335813 64.29152048 -22.09570312 64.30664062 C-12.07280201 64.33882119 -2.05009457 64.39002884 7.97265625 64.453125 C8.04860015 71.80372515 8.10121127 79.15422447 8.13745117 86.50512695 C8.15255569 89.00679302 8.17304054 91.50843253 8.19897461 94.01000977 C8.235284 97.60179184 8.252366 101.19322441 8.265625 104.78515625 C8.28110886 105.90710892 8.29659271 107.02906158 8.31254578 108.18501282 C8.31288567 109.74629158 8.31288567 109.74629158 8.31323242 111.33911133 C8.32322517 112.7147802 8.32322517 112.7147802 8.3334198 114.11824036 C7.97265625 116.453125 7.97265625 116.453125 6.63887024 118.24931335 C4.05316196 120.11744419 2.06432591 119.83958371 -1.02734375 119.453125 C-2.703125 118.44140625 -2.703125 118.44140625 -4.02734375 116.453125 C-4.24448616 113.64185457 -4.31018651 111.0647905 -4.21484375 108.265625 C-4.20130859 107.51603516 -4.18777344 106.76644531 -4.17382812 105.99414062 C-4.13852914 104.14682733 -4.08472292 102.29988434 -4.02734375 100.453125 C-4.98253906 101.11699219 -5.93773437 101.78085938 -6.921875 102.46484375 C-27.06638269 116.29848761 -47.50519325 122.89075373 -71.96484375 122.828125 C-72.69045502 122.82824585 -73.41606628 122.8283667 -74.16366577 122.82849121 C-86.16545373 122.80008735 -97.44607777 121.70971485 -109.02734375 118.453125 C-110.11917969 118.17597656 -111.21101563 117.89882812 -112.3359375 117.61328125 C-126.88263408 113.42120534 -139.04890808 104.57991897 -150.02734375 94.453125 C-150.72472656 93.83695312 -151.42210937 93.22078125 -152.140625 92.5859375 C-162.78937399 82.71636527 -169.51063593 67.83432998 -170.30078125 53.37109375 C-170.88239777 34.20418566 -165.73115762 19.05643677 -152.43359375 4.89453125 C-144.65377785 -2.9989508 -136.68494316 -9.06924433 -127.02734375 -14.546875 C-126.31835938 -14.95808594 -125.609375 -15.36929688 -124.87890625 -15.79296875 C-85.70230613 -37.03428991 -33.08131592 -27.83099094 0 0 Z " fill="#8E92E4" transform="translate(414.02734375,47.546875)"/>
<path d="M0 0 C3.81628832 1.54572776 5.97025743 3.88771245 8.6875 6.9375 C9.12320313 7.42476562 9.55890625 7.91203125 10.0078125 8.4140625 C13.70880387 12.58706437 17.21667635 16.90940167 20.71875 21.25 C23.86194258 25.03905407 27.20158595 28.63269352 30.53515625 32.25390625 C32.92707297 34.91875166 35.19254884 37.64831825 37.4375 40.4375 C40.6594526 44.43226662 44.00676693 48.24531913 47.5 52 C62 67.60049192 62 67.60049192 62 70 C22.73 70 -16.54 70 -57 70 C-55.040406 66.080812 -52.71733517 63.13984445 -49.875 59.875 C-48.87131939 58.70665304 -47.86872225 57.53737447 -46.8671875 56.3671875 C-46.37573242 55.79323242 -45.88427734 55.21927734 -45.37792969 54.62792969 C-43.5385829 52.45486725 -41.7649941 50.23370623 -40 48 C-36.47116597 43.54746299 -32.81770671 39.21314021 -29.13671875 34.88671875 C-26.21995487 31.45428391 -23.34306574 27.99407185 -20.5 24.5 C-16.25904934 19.29034298 -11.92778392 14.16173527 -7.578125 9.04296875 C-5.03552286 6.04192774 -2.51402628 3.02497047 0 0 Z " fill="#393839" transform="translate(750,40)"/>
<path d="M0 0 C3.0625 0.3125 3.0625 0.3125 4.73093796 1.58701706 C7.09370155 4.6487657 6.4584543 8.54736044 6.41894531 12.26269531 C6.42098969 13.17847855 6.42303406 14.09426178 6.42514038 15.03779602 C6.42815394 18.07227398 6.40964817 21.10621137 6.390625 24.140625 C6.38756717 26.24949001 6.38569123 28.35835703 6.38494873 30.46722412 C6.38034141 34.89245304 6.36590321 39.31750042 6.34375 43.74267578 C6.31553665 49.40635419 6.30454556 55.06988914 6.3000679 60.73363113 C6.29590247 65.09173001 6.28607451 69.44980009 6.27419281 73.80788422 C6.26850627 75.89541139 6.26374228 77.98294129 6.25992584 80.07047272 C6.25302238 82.99527282 6.23936894 85.91996225 6.22363281 88.84472656 C6.22251495 89.70316666 6.22139709 90.56160675 6.22024536 91.44606018 C6.13151768 103.94891755 2.65086838 113.79499802 -6 123.125 C-27.03346502 142.62030347 -57.15970579 145.69264925 -84.50683594 145.62817383 C-87.30182912 145.62501207 -90.09576145 145.64857629 -92.890625 145.67382812 C-104.23431185 145.71343252 -114.85847057 144.74003877 -125.9375 142.3125 C-126.60544083 142.16754089 -127.27338165 142.02258179 -127.96156311 141.87322998 C-144.24349349 138.30486625 -161.36027539 130.87859307 -171.375 116.9375 C-174.35992017 112.03739983 -176.19710131 106.75682412 -177.9375 101.3125 C-178.2675 100.3225 -178.5975 99.3325 -178.9375 98.3125 C-179.08078384 96.48287564 -179.15790343 94.64748763 -179.1875 92.8125 C-179.21328125 91.8534375 -179.2390625 90.894375 -179.265625 89.90625 C-178.9375 87.3125 -178.9375 87.3125 -177.609375 85.4921875 C-175.01333734 83.66040392 -173.01951853 83.92724768 -169.9375 84.3125 C-167.29939071 86.10287153 -166.95625552 87.21474773 -166.34765625 90.38671875 C-166.17556641 92.17529297 -166.17556641 92.17529297 -166 94 C-164.92584139 102.54924599 -162.36873314 109.30566296 -155.9375 115.3125 C-136.65912329 130.08520246 -112.77357763 132.86673111 -89.19677734 132.70361328 C-86.43927585 132.68751037 -83.68323925 132.70357857 -80.92578125 132.72265625 C-59.25071806 132.74873311 -33.52789759 130.03831004 -16.4921875 115.1796875 C-7.84898713 106.02618747 -5.80262032 96.54572359 -5.76391602 84.30957031 C-5.7538855 82.98171257 -5.7538855 82.98171257 -5.74365234 81.62702942 C-5.72965129 79.71350705 -5.71774171 77.79996847 -5.70770454 75.8864212 C-5.69124446 72.86088578 -5.66800893 69.83547206 -5.64280701 66.80999756 C-5.57213783 58.2111214 -5.51171657 49.61219853 -5.46069336 41.01318359 C-5.4289774 35.74776339 -5.38773396 30.48248872 -5.34049797 25.21718597 C-5.32444858 23.20928294 -5.31214066 21.20134649 -5.30359077 19.19339752 C-5.29149302 16.3947307 -5.26737122 13.59640956 -5.24047852 10.79785156 C-5.23988937 9.96355118 -5.23930023 9.12925079 -5.23869324 8.26966858 C-5.13990848 0.54679877 -5.13990848 0.54679877 0 0 Z " fill="#6DBBF1" transform="translate(189.9375,24.6875)"/>
<path d="M0 0 C3.0625 0.3125 3.0625 0.3125 4.73009682 1.48805237 C6.5681938 4.00494195 6.43992799 5.7131702 6.44345093 8.81616211 C6.4519104 9.96027557 6.46036987 11.10438904 6.46908569 12.28317261 C6.463013 13.53937408 6.45694031 14.79557556 6.45068359 16.08984375 C6.4547484 17.42530751 6.46008977 18.76076791 6.46661377 20.09622192 C6.48030422 23.72431286 6.47498174 27.35214821 6.46547651 30.98024368 C6.45788881 34.77451524 6.46492305 38.56876471 6.46963501 42.36303711 C6.47509517 48.73522883 6.46789417 55.10731629 6.45361328 61.47949219 C6.4372862 68.84986317 6.44257453 76.2199852 6.4590925 83.59035015 C6.4727 89.91484301 6.47463065 96.23926086 6.46677649 102.56376362 C6.4620959 106.34267063 6.46148564 110.12146058 6.47138596 113.90036011 C6.48004273 117.45284573 6.47405773 121.00500994 6.45670319 124.55746078 C6.4508345 126.48557847 6.45976491 128.4137233 6.46908569 130.34182739 C6.45639648 132.05799759 6.45639648 132.05799759 6.44345093 133.80883789 C6.44231985 134.80508682 6.44118877 135.80133575 6.44002342 136.82777405 C6.0625 139.3125 6.0625 139.3125 4.73009682 141.13694763 C2.17286087 142.93964043 0.09665144 142.63528207 -2.9375 142.3125 C-5.57098941 139.67901059 -5.18873293 138.52058894 -5.19146729 134.84643555 C-5.19710693 133.68542328 -5.20274658 132.52441101 -5.20855713 131.32821655 C-5.20450867 130.04814728 -5.20046021 128.768078 -5.19628906 127.44921875 C-5.198998 126.09257825 -5.20255839 124.73593921 -5.20690918 123.37930298 C-5.21604706 119.68928566 -5.21248322 115.99937984 -5.20615101 112.3093605 C-5.20109823 108.45322614 -5.20578044 104.59710152 -5.20892334 100.7409668 C-5.2125651 94.26446818 -5.20775841 87.78801514 -5.19824219 81.31152344 C-5.18735722 73.81680112 -5.19088265 66.3221876 -5.201895 58.82746792 C-5.21096192 52.40026383 -5.21225608 45.97309255 -5.20701766 39.54588413 C-5.20389467 35.70386025 -5.20349759 31.86188756 -5.21009064 28.01986694 C-5.21585485 24.40836858 -5.21188431 20.79701092 -5.20030212 17.1855278 C-5.19638258 15.222615 -5.20234906 13.25969034 -5.20855713 11.29678345 C-5.20291748 10.13577118 -5.19727783 8.97475891 -5.19146729 7.77856445 C-5.19033621 6.25873711 -5.19033621 6.25873711 -5.18918228 4.70820618 C-4.79739873 0.97890799 -3.63833008 0.38705639 0 0 Z " fill="#7DABEE" transform="translate(218.9375,24.6875)"/>
</svg>
